<svg width="195" height="36" viewBox="0 0 195 36" fill="none" xmlns="http://www.w3.org/2000/svg">
<path d="M9.65935 0H23.7769V9.65935H9.65935V0Z" fill="#FC3B06"/>
<path d="M9.65935 11.8884H20.136V21.5478H9.65935V11.8884Z" fill="#FC3B06"/>
<path d="M9.65935 23.7769H23.7769V33.4362H9.65935V23.7769Z" fill="#FC3B06"/>
<path d="M0 9.65935C0 4.32464 4.32464 0 9.65935 0V11.8884H0V9.65935Z" fill="#FC3B06"/>
<path d="M0 21.5478C0 16.2131 4.32464 11.8884 9.65935 11.8884V23.7769H0V21.5478Z" fill="#FC3B06"/>
<path d="M0 33.4362C0 28.1015 4.32464 23.7769 9.65935 23.7769V35.6653H0V33.4362Z" fill="#FC3B06"/>
<path d="M39.9968 25.8325V10.1223H43.0198V25.8325H39.9968ZM41.9487 25.8325V23.357H51.7319V25.8325H41.9487ZM41.9487 19.0009V16.7158H50.5655V19.0009H41.9487ZM41.9487 12.5978V10.1223H51.6843V12.5978H41.9487ZM61.0236 26.142C60.2302 26.142 59.5478 25.9912 58.9765 25.6897C58.4052 25.3723 57.9371 24.928 57.5721 24.3567C57.223 23.7854 56.9691 23.1031 56.8104 22.3096H56.3819L56.4057 25.8325H53.8826V19.715V8.93208H56.8818V12.9549C56.8818 13.3357 56.858 13.7483 56.8104 14.1926C56.7628 14.637 56.6993 15.0972 56.62 15.5732C56.5406 16.0334 56.4533 16.5016 56.3581 16.9776H56.858C57.0643 16.2159 57.3341 15.5494 57.6673 14.9782C58.0164 14.391 58.4687 13.9308 59.0241 13.5976C59.5795 13.2643 60.2619 13.0977 61.0712 13.0977C62.1027 13.0977 62.9914 13.3754 63.7372 13.9308C64.4989 14.4703 65.0861 15.2321 65.4987 16.2159C65.9112 17.1839 66.1175 18.3344 66.1175 19.6674C66.1175 20.9687 65.9112 22.1033 65.4987 23.0713C65.1019 24.0393 64.5227 24.7931 63.761 25.3326C63.0152 25.8722 62.1027 26.142 61.0236 26.142ZM60.0715 23.6664C60.6586 23.6664 61.1744 23.4998 61.6187 23.1665C62.063 22.8333 62.3963 22.3652 62.6184 21.7621C62.8565 21.1591 62.9755 20.445 62.9755 19.6198C62.9755 18.8264 62.8644 18.1281 62.6422 17.5251C62.4201 16.9221 62.0948 16.446 61.6663 16.0969C61.2378 15.7478 60.7142 15.5732 60.0953 15.5732C59.6827 15.5732 59.3018 15.6605 58.9527 15.8351C58.6036 15.9938 58.3021 16.2159 58.0482 16.5016C57.7943 16.7713 57.58 17.0729 57.4055 17.4061C57.2309 17.7394 57.096 18.0885 57.0008 18.4535C56.9215 18.8026 56.8818 19.1279 56.8818 19.4294V19.8341C56.8818 20.2308 56.9453 20.6592 57.0722 21.1194C57.1992 21.5638 57.3976 21.9764 57.6673 22.3572C57.9371 22.7381 58.2703 23.0555 58.6671 23.3094C59.0638 23.5474 59.5319 23.6664 60.0715 23.6664ZM73.971 26.142C72.9713 26.142 72.0747 25.9991 71.2812 25.7135C70.5036 25.4279 69.8451 25.0153 69.3055 24.4757C68.766 23.9203 68.3534 23.2538 68.0678 22.4762C67.7821 21.6987 67.6393 20.8179 67.6393 19.8341C67.6393 18.8502 67.7742 17.9456 68.0439 17.1205C68.3296 16.2953 68.7342 15.5812 69.2579 14.9782C69.7816 14.3751 70.4164 13.907 71.1622 13.5737C71.9239 13.2405 72.7888 13.0739 73.7568 13.0739C74.6613 13.0739 75.4706 13.2246 76.1847 13.5261C76.8988 13.8277 77.5018 14.2799 77.9938 14.8829C78.4857 15.4701 78.8507 16.208 79.0887 17.0967C79.3268 17.9695 79.4061 18.9851 79.3268 20.1435L69.5912 20.2149V18.4773L77.5891 18.4058L76.5418 19.3818C76.637 18.4773 76.5656 17.7394 76.3275 17.1681C76.0895 16.5809 75.7483 16.1525 75.304 15.8827C74.8597 15.597 74.3519 15.4542 73.7806 15.4542C73.1299 15.4542 72.5587 15.6288 72.0667 15.9779C71.5748 16.3111 71.1939 16.8031 70.9242 17.4537C70.6703 18.0885 70.5433 18.866 70.5433 19.7864C70.5433 21.167 70.8448 22.1985 71.4478 22.8809C72.0667 23.5633 72.9078 23.9044 73.971 23.9044C74.4471 23.9044 74.8438 23.8489 75.1612 23.7378C75.4944 23.6109 75.7721 23.4522 75.9943 23.2617C76.2165 23.0555 76.391 22.8254 76.518 22.5714C76.6608 22.3175 76.7719 22.0478 76.8512 21.7621L79.4696 22.3572C79.3426 22.9444 79.1363 23.468 78.8507 23.9282C78.5651 24.3884 78.1921 24.7852 77.7319 25.1184C77.2876 25.4517 76.756 25.7056 76.1371 25.8801C75.5182 26.0547 74.7962 26.142 73.971 26.142ZM81.5922 25.8325V19.596V13.3833H84.1154L84.0678 17.6679H84.4962C84.639 16.6523 84.8612 15.8113 85.1627 15.1448C85.4642 14.4624 85.8847 13.9546 86.4243 13.6214C86.9638 13.2722 87.6303 13.0977 88.4238 13.0977C88.5825 13.0977 88.7491 13.1056 88.9237 13.1215C89.1141 13.1374 89.3204 13.177 89.5425 13.2405L89.4235 16.4064C89.1696 16.3111 88.9078 16.2477 88.638 16.2159C88.3841 16.1683 88.1461 16.1445 87.9239 16.1445C87.305 16.1445 86.7655 16.3032 86.3053 16.6206C85.8609 16.938 85.496 17.3902 85.2103 17.9774C84.9405 18.5487 84.7342 19.231 84.5914 20.0245V25.8325H81.5922ZM97.9965 25.8325V23.357H102.591C103.543 23.357 104.328 23.1427 104.947 22.7143C105.582 22.2858 106.05 21.6749 106.351 20.8814C106.669 20.088 106.828 19.1358 106.828 18.025C106.828 17.0887 106.724 16.2794 106.518 15.597C106.328 14.9147 106.034 14.3593 105.637 13.9308C105.241 13.4865 104.741 13.1532 104.138 12.9311C103.535 12.7089 102.829 12.5978 102.019 12.5978H97.9965V10.1223H101.924C103.781 10.1223 105.296 10.4317 106.471 11.0506C107.661 11.6695 108.533 12.5581 109.089 13.7166C109.66 14.8591 109.946 16.2397 109.946 17.8584C109.946 19.0009 109.811 20.0165 109.541 20.9052C109.271 21.778 108.906 22.5318 108.446 23.1665C107.986 23.7854 107.446 24.2932 106.828 24.69C106.209 25.0867 105.542 25.3803 104.828 25.5707C104.13 25.7452 103.408 25.8325 102.662 25.8325H97.9965ZM96.5207 25.8325V10.1223H99.5199V25.8325H96.5207ZM118.023 26.142C117.023 26.142 116.127 25.9991 115.333 25.7135C114.556 25.4279 113.897 25.0153 113.358 24.4757C112.818 23.9203 112.406 23.2538 112.12 22.4762C111.834 21.6987 111.691 20.8179 111.691 19.8341C111.691 18.8502 111.826 17.9456 112.096 17.1205C112.382 16.2953 112.786 15.5812 113.31 14.9782C113.834 14.3751 114.469 13.907 115.214 13.5737C115.976 13.2405 116.841 13.0739 117.809 13.0739C118.713 13.0739 119.523 13.2246 120.237 13.5261C120.951 13.8277 121.554 14.2799 122.046 14.8829C122.538 15.4701 122.903 16.208 123.141 17.0967C123.379 17.9695 123.458 18.9851 123.379 20.1435L113.643 20.2149V18.4773L121.641 18.4058L120.594 19.3818C120.689 18.4773 120.618 17.7394 120.38 17.1681C120.142 16.5809 119.8 16.1525 119.356 15.8827C118.912 15.597 118.404 15.4542 117.833 15.4542C117.182 15.4542 116.611 15.6288 116.119 15.9779C115.627 16.3111 115.246 16.8031 114.976 17.4537C114.722 18.0885 114.595 18.866 114.595 19.7864C114.595 21.167 114.897 22.1985 115.5 22.8809C116.119 23.5633 116.96 23.9044 118.023 23.9044C118.499 23.9044 118.896 23.8489 119.213 23.7378C119.547 23.6109 119.824 23.4522 120.046 23.2617C120.269 23.0555 120.443 22.8254 120.57 22.5714C120.713 22.3175 120.824 22.0478 120.903 21.7621L123.522 22.3572C123.395 22.9444 123.189 23.468 122.903 23.9282C122.617 24.3884 122.244 24.7852 121.784 25.1184C121.34 25.4517 120.808 25.7056 120.189 25.8801C119.57 26.0547 118.848 26.142 118.023 26.142ZM130.616 26.142C129.775 26.142 129.013 26.0547 128.331 25.8801C127.664 25.7214 127.093 25.4913 126.617 25.1898C126.141 24.8724 125.76 24.4995 125.474 24.0711C125.189 23.6267 125.014 23.1348 124.951 22.5953L127.307 21.7145C127.339 22.1271 127.498 22.5 127.783 22.8333C128.069 23.1507 128.466 23.4046 128.973 23.595C129.481 23.7854 130.092 23.8806 130.806 23.8806C131.6 23.8806 132.211 23.7616 132.639 23.5236C133.084 23.2697 133.306 22.9126 133.306 22.4524C133.306 22.1192 133.187 21.8573 132.949 21.6669C132.711 21.4606 132.362 21.294 131.901 21.167C131.457 21.0242 130.917 20.8893 130.283 20.7624C129.696 20.6354 129.1 20.4926 128.497 20.3339C127.91 20.1594 127.363 19.9372 126.855 19.6674C126.363 19.3818 125.958 19.0168 125.641 18.5725C125.34 18.1123 125.189 17.5331 125.189 16.8348C125.189 16.0731 125.387 15.4145 125.784 14.8591C126.196 14.3037 126.784 13.8673 127.545 13.5499C128.323 13.2326 129.259 13.0739 130.354 13.0739C131.386 13.0739 132.274 13.2167 133.02 13.5023C133.782 13.788 134.401 14.2006 134.877 14.7401C135.353 15.2638 135.654 15.8906 135.781 16.6206L133.306 17.4061C133.258 16.9618 133.107 16.5889 132.853 16.2873C132.6 15.97 132.258 15.7319 131.83 15.5732C131.401 15.4145 130.902 15.3352 130.33 15.3352C129.6 15.3352 129.029 15.4622 128.616 15.7161C128.204 15.97 127.998 16.3111 127.998 16.7396C127.998 17.0887 128.125 17.3664 128.378 17.5727C128.648 17.779 129.013 17.9456 129.473 18.0726C129.949 18.1996 130.489 18.3265 131.092 18.4535C131.727 18.5804 132.338 18.7312 132.925 18.9057C133.528 19.0644 134.067 19.2786 134.543 19.5484C135.02 19.8182 135.4 20.1752 135.686 20.6196C135.972 21.048 136.115 21.6034 136.115 22.2858C136.115 23.111 135.892 23.8172 135.448 24.4043C135.004 24.9756 134.369 25.412 133.544 25.7135C132.734 25.9991 131.758 26.142 130.616 26.142ZM138.163 25.8325V13.3833H141.162V25.8325H138.163ZM139.662 11.4314C139.059 11.4314 138.591 11.3045 138.258 11.0506C137.94 10.7808 137.782 10.4 137.782 9.90802C137.782 9.41608 137.94 9.04316 138.258 8.78926C138.591 8.51949 139.059 8.3846 139.662 8.3846C140.297 8.3846 140.773 8.51155 141.09 8.76546C141.408 9.01936 141.566 9.40021 141.566 9.90802C141.566 10.4 141.4 10.7808 141.067 11.0506C140.749 11.3045 140.281 11.4314 139.662 11.4314ZM148.888 30.1171C147.539 30.1171 146.428 30.014 145.555 29.8077C144.698 29.6014 144.064 29.292 143.651 28.8794C143.239 28.4668 143.032 27.959 143.032 27.3559C143.032 26.626 143.318 26.0309 143.889 25.5707C144.476 25.0946 145.341 24.801 146.484 24.69V24.2139C145.627 24.2298 144.976 24.1425 144.532 23.952C144.087 23.7458 143.865 23.4204 143.865 22.9761C143.865 22.5476 144.08 22.1668 144.508 21.8335C144.952 21.5003 145.682 21.2226 146.698 21.0004V20.5244C145.73 20.4767 144.976 20.1752 144.437 19.6198C143.897 19.0485 143.627 18.3106 143.627 17.4061C143.627 16.5968 143.849 15.8827 144.294 15.2638C144.738 14.6449 145.389 14.1609 146.246 13.8118C147.118 13.4468 148.174 13.2643 149.412 13.2643H155.577V15.6446L151.673 15.0734V15.597C152.657 15.7557 153.379 16.0334 153.839 16.4302C154.315 16.8269 154.553 17.3664 154.553 18.0488C154.553 18.6994 154.347 19.2786 153.934 19.7864C153.522 20.2784 152.919 20.6672 152.125 20.9528C151.348 21.2226 150.403 21.3575 149.293 21.3575C149.086 21.3575 148.864 21.3495 148.626 21.3337C148.388 21.3178 148.015 21.2781 147.507 21.2147C147.174 21.4527 146.904 21.6669 146.698 21.8573C146.492 22.0319 146.388 22.1985 146.388 22.3572C146.388 22.4842 146.468 22.5953 146.627 22.6905C146.785 22.7698 146.992 22.8254 147.245 22.8571C147.499 22.8888 147.745 22.9047 147.983 22.9047H151.292C151.609 22.9047 152.014 22.9285 152.506 22.9761C153.014 23.0237 153.514 23.1507 154.006 23.357C154.513 23.5633 154.934 23.8886 155.267 24.3329C155.616 24.7772 155.791 25.4041 155.791 26.2134C155.791 27.1179 155.529 27.8558 155.005 28.4271C154.498 29.0142 153.728 29.4427 152.696 29.7125C151.681 29.9823 150.411 30.1171 148.888 30.1171ZM149.15 27.6892C150.134 27.6892 150.919 27.6336 151.506 27.5226C152.093 27.4115 152.514 27.229 152.768 26.9751C153.022 26.7371 153.149 26.4276 153.149 26.0468C153.149 25.6976 153.069 25.4279 152.911 25.2374C152.752 25.0311 152.546 24.8883 152.292 24.809C152.054 24.7296 151.808 24.682 151.554 24.6662C151.3 24.6503 151.086 24.6423 150.911 24.6423H147.983C147.222 24.7534 146.682 24.9677 146.365 25.285C146.063 25.6024 145.912 25.9515 145.912 26.3324C145.912 26.7132 146.039 26.9989 146.293 27.1893C146.547 27.3956 146.912 27.5305 147.388 27.594C147.88 27.6574 148.467 27.6892 149.15 27.6892ZM149.221 19.715C150.046 19.715 150.673 19.5246 151.102 19.1438C151.53 18.747 151.744 18.2313 151.744 17.5965C151.744 16.9142 151.522 16.3588 151.078 15.9303C150.649 15.486 150.022 15.2638 149.197 15.2638C148.372 15.2638 147.729 15.478 147.269 15.9065C146.825 16.3349 146.603 16.8824 146.603 17.5489C146.603 17.9774 146.698 18.3582 146.888 18.6915C147.095 19.0089 147.388 19.2628 147.769 19.4532C148.166 19.6278 148.65 19.715 149.221 19.715ZM157.736 25.8325V18.2392V13.3833H160.236L160.164 17.1919H160.593C160.815 16.2556 161.108 15.486 161.473 14.8829C161.854 14.2799 162.338 13.8277 162.925 13.5261C163.513 13.2246 164.195 13.0739 164.972 13.0739C166.385 13.0739 167.456 13.5737 168.186 14.5735C168.932 15.5732 169.305 17.1205 169.305 19.2152V25.8325H166.282V19.5246C166.282 18.1757 166.075 17.1919 165.663 16.573C165.266 15.9382 164.671 15.6208 163.878 15.6208C163.211 15.6208 162.648 15.8351 162.187 16.2635C161.727 16.6761 161.37 17.2315 161.116 17.9298C160.878 18.6121 160.751 19.3659 160.735 20.1911V25.8325H157.736ZM177.615 26.142C176.616 26.142 175.719 25.9991 174.926 25.7135C174.148 25.4279 173.49 25.0153 172.95 24.4757C172.41 23.9203 171.998 23.2538 171.712 22.4762C171.427 21.6987 171.284 20.8179 171.284 19.8341C171.284 18.8502 171.419 17.9456 171.688 17.1205C171.974 16.2953 172.379 15.5812 172.902 14.9782C173.426 14.3751 174.061 13.907 174.807 13.5737C175.568 13.2405 176.433 13.0739 177.401 13.0739C178.306 13.0739 179.115 13.2246 179.829 13.5261C180.543 13.8277 181.146 14.2799 181.638 14.8829C182.13 15.4701 182.495 16.208 182.733 17.0967C182.971 17.9695 183.051 18.9851 182.971 20.1435L173.236 20.2149V18.4773L181.234 18.4058L180.186 19.3818C180.281 18.4773 180.21 17.7394 179.972 17.1681C179.734 16.5809 179.393 16.1525 178.948 15.8827C178.504 15.597 177.996 15.4542 177.425 15.4542C176.774 15.4542 176.203 15.6288 175.711 15.9779C175.219 16.3111 174.838 16.8031 174.569 17.4537C174.315 18.0885 174.188 18.866 174.188 19.7864C174.188 21.167 174.489 22.1985 175.092 22.8809C175.711 23.5633 176.552 23.9044 177.615 23.9044C178.092 23.9044 178.488 23.8489 178.806 23.7378C179.139 23.6109 179.417 23.4522 179.639 23.2617C179.861 23.0555 180.035 22.8254 180.162 22.5714C180.305 22.3175 180.416 22.0478 180.496 21.7621L183.114 22.3572C182.987 22.9444 182.781 23.468 182.495 23.9282C182.21 24.3884 181.837 24.7852 181.376 25.1184C180.932 25.4517 180.4 25.7056 179.782 25.8801C179.163 26.0547 178.441 26.142 177.615 26.142ZM185.237 25.8325V19.596V13.3833H187.76L187.712 17.6679H188.141C188.283 16.6523 188.506 15.8113 188.807 15.1448C189.109 14.4624 189.529 13.9546 190.069 13.6214C190.608 13.2722 191.275 13.0977 192.068 13.0977C192.227 13.0977 192.394 13.1056 192.568 13.1215C192.759 13.1374 192.965 13.177 193.187 13.2405L193.068 16.4064C192.814 16.3111 192.552 16.2477 192.282 16.2159C192.029 16.1683 191.791 16.1445 191.568 16.1445C190.949 16.1445 190.41 16.3032 189.95 16.6206C189.505 16.938 189.14 17.3902 188.855 17.9774C188.585 18.5487 188.379 19.231 188.236 20.0245V25.8325H185.237Z" fill="url(#paint0_linear_421_2)"/>
<defs>
<linearGradient id="paint0_linear_421_2" x1="38.1401" y1="17.8325" x2="194.14" y2="17.8325" gradientUnits="userSpaceOnUse">
<stop stop-color="#EDEDED"/>
<stop offset="1" stop-color="#A1A1A1"/>
</linearGradient>
</defs>
</svg>
